<?xml version="1.0" encoding="UTF-8"?>
<!DOCTYPE svg PUBLIC "-//W3C//DTD SVG 1.1//EN" "http://www.w3.org/Graphics/SVG/1.1/DTD/svg11.dtd">
<!-- Creator: CorelDRAW X6 -->
<svg xmlns="http://www.w3.org/2000/svg" xml:space="preserve" width="99.9994mm" height="100.001mm" version="1.1" style="shape-rendering:geometricPrecision; text-rendering:geometricPrecision; image-rendering:optimizeQuality; fill-rule:evenodd; clip-rule:evenodd"
viewBox="0 0 10000 10000"
 xmlns:xlink="http://www.w3.org/1999/xlink">
 <defs>
  <style type="text/css">
   <![CDATA[
    .fil0 {fill:#028e26}
   ]]>
  </style>
 </defs>
 <g id="Vrstva_x0020_1">
  <metadata id="CorelCorpID_0Corel-Layer"/>
  <g id="_928577168">
   <path class="fil0" d="M5000 0c-2762,0 -5000,2239 -5000,5000 0,2761 2238,5000 5000,5000 2761,0 5000,-2239 5000,-5000 0,-2761 -2238,-5000 -5000,-5000zm0 426l0 0c2522,0 4574,2052 4574,4574 0,2522 -2052,4575 -4574,4575 -2523,0 -4575,-2052 -4575,-4575 0,-2522 2052,-4574 4575,-4574z"/>
   <path class="fil0" d="M1553 4665l0 0c198,-198 521,-198 719,0l1838 1838 3455 -3455c198,-198 521,-198 719,0l0 0c198,198 198,521 0,719l-3816 3816c-198,198 -521,198 -719,0l0 0c-732,-732 -1463,-1467 -2196,-2199 -198,-198 -198,-521 0,-719z"/>
  </g>
 </g>
</svg>
